<svg xmlns="http://www.w3.org/2000/svg" width="24" height="24" viewBox="0 0 24 24" fill="none">
  <defs>
    <linearGradient id="grad" x1="0" y1="0" x2="24" y2="24" gradientUnits="userSpaceOnUse">
      <stop stop-color="#5B6BFF"/>
      <stop offset="1" stop-color="#A21CF1"/>
    </linearGradient>
  </defs>
  <rect width="24" height="24" rx="5" fill="url(#grad)"/>
  <g stroke="#fff" stroke-width="2" stroke-linecap="round" stroke-linejoin="round">
    <path d="m16 16 3-8 3 8c-.87.65-1.92 1-3 1s-2.13-.35-3-1Z" />
    <path d="m2 16 3-8 3 8c-.87.65-1.92 1-3 1s-2.13-.35-3-1Z" />
    <path d="M7 21h10" />
    <path d="M12 3v18" />
    <path d="M3 7h2c2 0 5-1 7-2 2 1 5 2 7 2h2" />
  </g>
</svg> 